<svg xmlns="http://www.w3.org/2000/svg" width="760" height="760" viewBox="0 0 760 760" role="img" aria-label="Luxury checker emblem">
  <defs>
    <radialGradient id="core" cx="48%" cy="36%" r="62%">
      <stop offset="0" stop-color="#ffe9b8"/>
      <stop offset=".28" stop-color="#d79b49"/>
      <stop offset=".64" stop-color="#5b1e0f"/>
      <stop offset="1" stop-color="#120504"/>
    </radialGradient>
    <linearGradient id="ring" x1="0" y1="0" x2="1" y2="1">
      <stop offset="0" stop-color="#fff0bd"/>
      <stop offset=".35" stop-color="#b86a26"/>
      <stop offset=".7" stop-color="#3d1209"/>
      <stop offset="1" stop-color="#ffcf75"/>
    </linearGradient>
    <filter id="shadow" x="-40%" y="-40%" width="180%" height="180%">
      <feDropShadow dx="0" dy="28" stdDeviation="24" flood-color="#000000" flood-opacity=".55"/>
    </filter>
    <filter id="etch">
      <feTurbulence type="fractalNoise" baseFrequency=".035" numOctaves="3" seed="9"/>
      <feColorMatrix type="saturate" values=".2"/>
      <feComponentTransfer>
        <feFuncA type="table" tableValues="0 .22"/>
      </feComponentTransfer>
    </filter>
  </defs>
  <rect width="760" height="760" fill="none"/>
  <g filter="url(#shadow)" transform="translate(380 385) rotate(-13)">
    <ellipse cx="0" cy="0" rx="270" ry="224" fill="#050202" opacity=".42"/>
    <ellipse cx="0" cy="-28" rx="246" ry="202" fill="url(#core)" stroke="#160604" stroke-width="18"/>
    <ellipse cx="0" cy="-44" rx="172" ry="126" fill="#120504" opacity=".82"/>
    <ellipse cx="0" cy="-46" rx="136" ry="92" fill="none" stroke="url(#ring)" stroke-width="21"/>
    <ellipse cx="0" cy="-46" rx="92" ry="57" fill="none" stroke="#ffdf95" stroke-opacity=".55" stroke-width="5"/>
    <path d="M-156 -168 C-106 -238 -20 -260 66 -227 C138 -200 182 -145 194 -78" fill="none" stroke="#ffe6ad" stroke-opacity=".45" stroke-width="9" stroke-linecap="round"/>
    <path d="M-215 27 C-126 94 36 128 188 40" fill="none" stroke="#000000" stroke-opacity=".3" stroke-width="24" stroke-linecap="round"/>
    <ellipse cx="0" cy="-28" rx="246" ry="202" filter="url(#etch)" opacity=".9"/>
  </g>
  <g opacity=".36">
    <path d="M156 585 L605 137" stroke="#ffd58d" stroke-width="2"/>
    <path d="M142 149 L606 604" stroke="#ffd58d" stroke-width="2"/>
  </g>
</svg>
