<svg xmlns="http://www.w3.org/2000/svg" width="620" height="760" viewBox="0 0 620 760" role="img" aria-label="Results medallion">
  <defs>
    <linearGradient id="gold" x1="0" y1="0" x2="1" y2="1">
      <stop offset="0" stop-color="#fff1bc"/>
      <stop offset=".25" stop-color="#d59945"/>
      <stop offset=".58" stop-color="#7d3518"/>
      <stop offset="1" stop-color="#ffc76d"/>
    </linearGradient>
    <radialGradient id="dark" cx="50%" cy="35%" r="70%">
      <stop offset="0" stop-color="#6a2b14"/>
      <stop offset=".7" stop-color="#160705"/>
      <stop offset="1" stop-color="#060202"/>
    </radialGradient>
    <filter id="glow" x="-40%" y="-40%" width="180%" height="180%">
      <feDropShadow dx="0" dy="18" stdDeviation="18" flood-color="#d7792f" flood-opacity=".28"/>
      <feDropShadow dx="0" dy="34" stdDeviation="24" flood-color="#000000" flood-opacity=".55"/>
    </filter>
  </defs>
  <rect width="620" height="760" fill="none"/>
  <g filter="url(#glow)" transform="translate(310 310)">
    <path d="M0 -246 L60 -83 L233 -76 L97 28 L143 194 L0 100 L-143 194 L-97 28 L-233 -76 L-60 -83 Z" fill="url(#dark)" stroke="url(#gold)" stroke-width="13" stroke-linejoin="round"/>
    <circle r="142" fill="#090303" stroke="url(#gold)" stroke-width="10"/>
    <circle r="92" fill="none" stroke="#ffd98e" stroke-opacity=".56" stroke-width="12"/>
    <path d="M-70 16 C-30 58 32 58 73 12 M-55 -36 C-25 -66 26 -67 56 -38" fill="none" stroke="#ffd98e" stroke-width="12" stroke-linecap="round"/>
  </g>
  <g opacity=".28">
    <rect x="140" y="570" width="340" height="18" rx="9" fill="#ffd98e"/>
    <rect x="185" y="612" width="250" height="12" rx="6" fill="#ffd98e"/>
  </g>
</svg>
